<?xml version="1.0" standalone="no"?>
<!DOCTYPE svg PUBLIC "-//W3C//DTD SVG 1.1//EN"  "http://www.w3.org/Graphics/SVG/1.1/DTD/svg11.dtd">
<svg width="192" height="264" version="1.1" xmlns="http://www.w3.org/2000/svg">

<!-- black-bordered card background -->
<rect x="5" y="5" rx="11" ry="11" width="182" height="254"
style="fill: rgb(255,255,255);
stroke-width: 2;
stroke: rgb(0,0,0)" />

<!-- purple-bordered milestone -->
<path d="M 29 220
H 162
V 80
C 136.60085,31.645824 58.999863,30.168114 29,80
Z"
style="fill: rgb(255,255,255);
stroke-width: 5;
stroke: rgb(70,24,198)" />

<!-- green 1 -->
<path d="M 44.496885,106.46045 L 62.372801,106.46045 L 62.501405,146.45621 L 63.658839,147.61364 L 63.658839,157.38752 L 44.496885,157.38752 L 44.496885,148.51386 L 46.554545,146.45621 L 46.554545,119.06361 C 46.320012,117.82044 46.257935,116.57728 44.368281,115.33411 L 44.496885,106.46045 Z"
style="fill: rgb(24,117,52)" />

<!-- 1st green 0 -->
<path d="M 83.321424,105.71875 C 75.518154,105.71875 69.258928,112.00703 69.258928,119.8125 L 69.258928,144.34375 C 69.258928,152.14921 75.518154,158.40625 83.321424,158.40625 L 93.133924,158.40625 C 100.93719,158.40625 107.22766,152.14922 107.22767,144.34375 L 107.22767,119.8125 C 107.22767,112.00704 100.93719,105.71875 93.133924,105.71875 L 83.321424,105.71875 z M 88.133924,116.625 C 90.147414,116.625 91.790174,118.62403 91.790174,121.09375 L 91.790174,143.40625 C 91.790174,145.87597 90.147414,147.875 88.133924,147.875 C 86.120434,147.87499 84.508924,145.87597 84.508924,143.40625 L 84.508924,121.09375 C 84.508924,118.62403 86.120434,116.625 88.133924,116.625 Z"
style="fill: rgb(24,117,52)" />

<!-- 2nd green 0 -->
<path d="M 123.52981,105.59637 C 115.72654,105.59637 109.46731,111.88465 109.46731,119.69012 L 109.46731,144.22137 C 109.46731,152.02683 115.72654,158.28387 123.52981,158.28387 L 133.34231,158.28387 C 141.14557,158.28387 147.43604,152.02684 147.43605,144.22137 L 147.43605,119.69012 C 147.43605,111.88466 141.14557,105.59637 133.34231,105.59637 L 123.52981,105.59637 z M 128.34231,116.50262 C 130.3558,116.50262 131.99856,118.50165 131.99856,120.97137 L 131.99856,143.28387 C 131.99856,145.75359 130.3558,147.75262 128.34231,147.75262 C 126.32882,147.75261 124.71731,145.75359 124.71731,143.28387 L 124.71731,120.97137 C 124.71731,118.50165 126.32882,116.50262 128.34231,116.50262 Z"
style="fill: rgb(24,117,52)" />

</svg>