<?xml version="1.0" standalone="no"?>
<!DOCTYPE svg PUBLIC "-//W3C//DTD SVG 1.1//EN"  "http://www.w3.org/Graphics/SVG/1.1/DTD/svg11.dtd">
<svg width="192" height="264" version="1.1" xmlns="http://www.w3.org/2000/svg">

<!-- black-bordered card background -->
<rect x="5" y="5" rx="11" ry="11" width="182" height="254"
style="fill: rgb(255,255,255);
stroke-width: 2;
stroke: rgb(0,0,0)" />

<!-- green-bordered milestone -->
<path d="M 29 220
H 162
V 80
C 136.60085,31.645824 58.999863,30.168114 29,80
Z"
style="fill: rgb(255,255,255);
stroke-width: 5;
stroke: rgb(24,117,52)" />

<!-- purple 2 -->
<path d="M 57.566416,124.76415 L 57.449411,110.95758 C 62.16069,107.00891 69.052749,105.67718 76.872226,105.45835 C 93.688455,106.27477 94.554882,113.47112 94.539968,121.02 C 95.403214,141.78959 71.925347,135.99803 72.075025,146.76108 C 75.778979,146.71585 79.766716,146.98988 78.6273,141.49586 L 93.603929,141.72987 L 93.486924,157.52553 L 56.513372,157.52553 L 56.630377,142.5489 C 57.561281,127.9862 80.815191,127.60159 78.510295,120.66898 C 78.884616,117.47988 77.587745,117.00777 75.819182,116.57381 C 70.936171,117.60122 73.514185,121.82622 72.543045,124.53015 L 57.566416,124.76415 Z"
transform="translate(-20.413866,0)"
style="fill: rgb(70,24,198)" />

<!-- 1st purple 0 -->
<path d="M 91.892852,105.71875 C 84.089582,105.71875 77.830356,112.00703 77.830356,119.8125 L 77.830356,144.34374 C 77.830356,152.1492 84.089582,158.40624 91.892852,158.40624 L 101.70536,158.40624 C 109.50862,158.40624 115.79909,152.14921 115.7991,144.34374 L 115.7991,119.8125 C 115.7991,112.00704 109.50862,105.71875 101.70536,105.71875 L 91.892852,105.71875 z M 96.705352,116.625 C 98.718842,116.625 100.3616,118.62403 100.3616,121.09375 L 100.3616,143.40624 C 100.3616,145.87596 98.718842,147.87499 96.705352,147.87499 C 94.691862,147.87498 93.080352,145.87596 93.080352,143.40624 L 93.080352,121.09375 C 93.080352,118.62403 94.691862,116.625 96.705352,116.625 Z"
style="fill: rgb(70,24,198)" />

<!-- 2nd purple 0 -->
<path d="M 132.20313,105.49553 C 124.39986,105.49553 118.14063,111.78381 118.14063,119.58928 L 118.14063,144.12053 C 118.14063,151.92599 124.39986,158.18303 132.20313,158.18303 L 142.01563,158.18303 C 149.81889,158.18303 156.10936,151.926 156.10937,144.12053 L 156.10937,119.58928 C 156.10937,111.78382 149.81889,105.49553 142.01563,105.49553 L 132.20313,105.49553 z M 137.01563,116.40178 C 139.02912,116.40178 140.67188,118.40081 140.67188,120.87053 L 140.67188,143.18303 C 140.67188,145.65275 139.02912,147.65178 137.01563,147.65178 C 135.00214,147.65177 133.39063,145.65275 133.39063,143.18303 L 133.39063,120.87053 C 133.39063,118.40081 135.00214,116.40178 137.01563,116.40178 Z"
style="fill: rgb(70,24,198)" />

</svg>