<?xml version="1.0" standalone="no"?>
<!DOCTYPE svg PUBLIC "-//W3C//DTD SVG 1.1//EN"  "http://www.w3.org/Graphics/SVG/1.1/DTD/svg11.dtd">
<svg width="192" height="264" version="1.1" xmlns="http://www.w3.org/2000/svg">

<!-- black-bordered card background -->
<rect x="5" y="5" rx="11" ry="11" width="182" height="254"
style="fill: rgb(255,255,255);
stroke-width: 2;
stroke: rgb(0,0,0)" />

<!-- green-bordered milestone -->
<path d="M 29 220
H 162
V 80
C 136.60085,31.645824 58.999863,30.168114 29,80
Z"
style="fill: rgb(255,255,255);
stroke-width: 5;
stroke: rgb(24,117,52)" />

<!-- red 2 -->
<path d="M 57.566416,124.76415 L 57.449411,110.95758 C 62.16069,107.00891 69.052749,105.67718 76.872226,105.45835 C 93.688455,106.27477 94.554882,113.47112 94.539968,121.02 C 95.403214,141.78959 71.925347,135.99803 72.075025,146.76108 C 75.778979,146.71585 79.766716,146.98988 78.6273,141.49586 L 93.603929,141.72987 L 93.486924,157.52553 L 56.513372,157.52553 L 56.630377,142.5489 C 57.561281,127.9862 80.815191,127.60159 78.510295,120.66898 C 78.884616,117.47988 77.587745,117.00777 75.819182,116.57381 C 70.936171,117.60122 73.514185,121.82622 72.543045,124.53015 L 57.566416,124.76415 Z"
style="fill: rgb(239,31,29)" />

<!-- red 5 -->
<path d="M 98.480416,106.62443 L 134.44508,106.62443 L 134.44508,120.38273 L 119.47992,120.46318 C 118.6301,116.44611 115.85883,117.23268 113.36512,117.32533 L 113.44558,123.60104 C 131.66124,118.14821 135.65355,129.10005 135.57149,139.93399 C 136.0421,154.25373 128.16779,158.14231 117.54893,158.60021 C 109.55559,158.49786 103.25565,156.47632 98.480416,152.72678 L 98.399959,138.48574 L 113.60649,138.48574 C 113.3687,143.2196 113.58574,146.94857 116.42252,147.49702 C 118.45792,147.25184 119.40694,146.73248 119.64083,140.0949 C 119.42847,134.98559 118.3286,132.24295 116.48491,132.453 C 115.09615,132.61122 113.74133,133.14882 113.6065,134.62377 L 98.480416,134.46285 L 98.480416,106.62443 Z"
style="fill: rgb(239,31,29)" />

</svg>