<?xml version="1.0" standalone="no"?>
<!DOCTYPE svg PUBLIC "-//W3C//DTD SVG 1.1//EN"  "http://www.w3.org/Graphics/SVG/1.1/DTD/svg11.dtd">
<svg width="192" height="264" version="1.1" xmlns="http://www.w3.org/2000/svg">

<!-- black-bordered card background -->
<rect x="5" y="5" rx="11" ry="11" width="182" height="254"
style="fill: rgb(255,255,255);
stroke-width: 2;
stroke: rgb(0,0,0)" />

<!-- purple-bordered milestone -->
<path d="M 29 220
H 162
V 80
C 136.60085,31.645824 58.999863,30.168114 29,80
Z"
style="fill: rgb(255,255,255);
stroke-width: 5;
stroke: rgb(70,24,198)" />

<!-- red 5 -->
<path d="M 57.727265,106.62443 L 93.691929,106.62443 L 93.691929,120.38273 L 78.726769,120.46318 C 77.876949,116.44611 75.105679,117.23268 72.611969,117.32533 L 72.692429,123.60104 C 90.908089,118.14821 94.900399,129.10005 94.818339,139.93399 C 95.288949,154.25373 87.414639,158.14231 76.795779,158.60021 C 68.802439,158.49786 62.502499,156.47632 57.727265,152.72678 L 57.646808,138.48574 L 72.853339,138.48574 C 72.615549,143.2196 72.832589,146.94857 75.669369,147.49702 C 77.704769,147.25184 78.653789,146.73248 78.887679,140.0949 C 78.675319,134.98559 77.575449,132.24295 75.731759,132.453 C 74.342999,132.61122 72.988179,133.14882 72.853349,134.62377 L 57.727265,134.46285 L 57.727265,106.62443 Z"
style="fill: rgb(239,31,29)" />

<!-- red 0 -->
<path d="M 110.75 105.71875 C 102.94673 105.71875 96.6875 112.00703 96.6875 119.8125 L 96.6875 144.34375 C 96.6875 152.14921 102.94673 158.40625 110.75 158.40625 L 120.5625 158.40625 C 128.36577 158.40625 134.65624 152.14922 134.65625 144.34375 L 134.65625 119.8125 C 134.65625 112.00704 128.36577 105.71875 120.5625 105.71875 L 110.75 105.71875 z M 115.5625 116.625 C 117.57599 116.625 119.21875 118.62403 119.21875 121.09375 L 119.21875 143.40625 C 119.21875 145.87597 117.57599 147.875 115.5625 147.875 C 113.54901 147.87499 111.9375 145.87597 111.9375 143.40625 L 111.9375 121.09375 C 111.9375 118.62403 113.54901 116.625 115.5625 116.625 Z"
style="fill: rgb(239,31,29)" />

</svg>