<?xml version="1.0" standalone="no"?>
<!DOCTYPE svg PUBLIC "-//W3C//DTD SVG 1.1//EN"  "http://www.w3.org/Graphics/SVG/1.1/DTD/svg11.dtd">
<svg width="192" height="264" version="1.1" xmlns="http://www.w3.org/2000/svg">

<!-- black-bordered card background -->
<rect x="5" y="5" rx="11" ry="11" width="182" height="254"
style="fill: rgb(255,255,255);
stroke-width: 2;
stroke: rgb(0,0,0)" />

<!-- red-bordered milestone -->
<path d="M 29 220
H 162
V 80
C 136.60085,31.645824 58.999863,30.168114 29,80
Z"
style="fill: rgb(255,255,255);
stroke-width: 5;
stroke: rgb(239,31,29)" />

<!-- green 7 -->
<path d="M 58.508349,106.24119 L 94.441558,106.37477 L 94.575139,115.45826 L 79.480519,156.60111 L 62.649351,156.60111 L 77.61039,116.66048 C 73.272194,116.06466 70.611401,118.26451 71.599258,126.54545 L 58.508349,126.54545 L 58.508349,106.24119 Z"
style="fill: rgb(24,117,52)" />

<!-- green 5 -->
<path d="M 96.76613,106.053 L 132.73079,106.053 L 132.73079,119.8113 L 117.76563,119.89175 C 116.91581,115.87468 114.14454,116.66125 111.65083,116.7539 L 111.73129,123.02961 C 129.94695,117.57678 133.93926,128.52862 133.8572,139.36256 C 134.32781,153.6823 126.4535,157.57088 115.83464,158.02878 C 107.8413,157.92643 101.54136,155.90489 96.76613,152.15535 L 96.685673,137.91431 L 111.8922,137.91431 C 111.65441,142.64817 111.87145,146.37714 114.70823,146.92559 C 116.74363,146.68041 117.69265,146.16105 117.92654,139.52347 C 117.71418,134.41416 116.61431,131.67152 114.77062,131.88157 C 113.38186,132.03979 112.02704,132.57739 111.89221,134.05234 L 96.76613,133.89142 L 96.76613,106.053 Z"
style="fill: rgb(24,117,52)" />

</svg>