<?xml version="1.0" standalone="no"?>
<!DOCTYPE svg PUBLIC "-//W3C//DTD SVG 1.1//EN" "http://www.w3.org/Graphics/SVG/1.1/DTD/svg11.dtd">
<svg width="192" height="264" version="1.1" xmlns="http://www.w3.org/2000/svg">

<!-- red-bordered card background -->
<rect x="5" y="5" rx="11" ry="11" width="182" height="254"
style="fill: rgb(255,255,255);
stroke-width: 2;
stroke: rgb(239,31,29)" />

<!-- red E -->
<path d="M 26 70
H 46
V 79
H 39
Q 40 75 36 75
V 81
H 41
V 86
H 36
V 92
Q 40 92 39 88
H 46
V 97
H 26
V 93
H 27
V 75
H 26
Z"
style="fill: rgb(239,31,29)" />

<!-- red F -->
<path d="M 144 70
H 164
V 79
H 157
Q 158 75 154 75
V 81
H 159
V 86
H 154
V 93
H 155
V 97
H 144
V 93
H 145
V 75
H 144
Z"
style="fill: rgb(239,31,29)" />

<!-- black arc -->
<path d="M 24 118
Q 96 69 168 118
L 163 126
Q 96 79 29 126
Z"
style="fill: rgb(0,0,0)" />

<!-- red arrow -->
<polygon points="49,114 52,136 57,133 93,193 97.5,190 62,131 66.5,128"
style="fill: rgb(239,31,29)" />

</svg>