<?xml version="1.0" standalone="no"?>
<!DOCTYPE svg PUBLIC "-//W3C//DTD SVG 1.1//EN" "http://www.w3.org/Graphics/SVG/1.1/DTD/svg11.dtd">
<svg width="192" height="264" version="1.1" xmlns="http://www.w3.org/2000/svg">

<!-- red-bordered card background -->
<rect x="5" y="5" rx="11" ry="11" width="182" height="254"
style="fill: rgb(255,255,255);
stroke-width: 2;
stroke: rgb(239,31,29)" />

<!-- red ring -->
<circle cx="96" cy="132" r="72"
style="fill: rgb(239,31,29)" />

<!-- white circle -->
<circle cx="96" cy="132" r="58"
style="fill: rgb(255,255,255)" />

<!-- black 5 -->
<path
d="M 55.048604,107.61944 L 55.040849,135.69369 L 69.813508,135.70053 C 70.296698,134.36555 70.817494,133.39802 72.525441,133.44212 C 76.300461,133.66281 75.347641,137.75174 75.526066,140.9151 C 75.760939,145.33584 75.050143,147.99133 72.678431,147.54645 C 68.921318,147.82542 70.257152,142.08545 70.030363,138.19222 L 55.046836,137.99302 L 55.015941,152.96941 C 59.688976,157.77386 66.514036,158.81227 73.951819,158.77842 C 83.270649,157.83844 92.51843,156.78888 91.635874,140.0368 C 91.340095,126.00778 84.675924,120.21107 70.109565,124.62939 L 70.105162,118.17922 C 73.152476,117.53027 76.460905,120.53696 76.113706,121.71582 L 90.255056,121.14525 L 90.048043,107.65625 L 55.048604,107.61944 Z"
style="fill: rgb(0,0,0)" />

<!-- black 0 -->
<path
d="M 115.125 106.875 C 107.54798 106.875 101.4375 112.98549 101.4375 120.5625 L 101.4375 144.78125 C 101.4375 152.35827 107.54798 158.46876 115.125 158.46875 L 125.25 158.46875 C 132.82702 158.46875 138.9375 152.35827 138.9375 144.78125 L 138.9375 120.5625 C 138.9375 112.98549 132.82702 106.875 125.25 106.875 L 115.125 106.875 z M 120.1875 117.09375 C 121.91768 117.09375 123.3125 118.48857 123.3125 120.21875 L 123.3125 145.21875 C 123.3125 146.94893 121.91768 148.34375 120.1875 148.34375 C 118.45731 148.34375 117.0625 146.94893 117.0625 145.21875 L 117.0625 120.21875 C 117.0625 118.48856 118.45732 117.09375 120.1875 117.09375 Z"
style="fill: rgb(0,0,0)" />

</svg>